# xmcd
#
# Track frame offsets:
#	150
#	14801
#	26035
#	39087
#	50607
#	63296
#	75203
#	88554
#	100824
#	113782
#	124256
#	135061
#	147842
#	160182
#	172581
#	185761
#	198736
#	209951
#	219647
#	232088
#
# Disc length: 3234 seconds
#
# Revision: 1
# Processed by: cddbd v1.5.2PL0 Copyright (c) Steve Scherf et al.
# Submitted via: audiograbber 1.83.01
#
DISCID=170ca014
DTITLE=Patti Page - The Essential Recordings - CD 2
DYEAR=2017
DGENRE=Oldies
TTITLE0=I Went To Your Wedding
TTITLE1=(How Much Is That) Doggie In The Window
TTITLE2=Allegheny Moon
TTITLE3=Cross Over The Bridge
TTITLE4=You Belong To Me
TTITLE5=Old Cape Cod
TTITLE6=Changing Partners
TTITLE7=Butterflies
TTITLE8=This Is My Song (Patti`s Theme)
TTITLE9=Steam Heat
TTITLE10=Let Me Go, Lover
TTITLE11=What A Dream
TTITLE12=I Cried
TTITLE13=Croce Di Oro (Cross Of Gold)
TTITLE14=Go On With The Wedding
TTITLE15=Mama From The Train
TTITLE16=A Poor Man`s Roses (Or A Rich Man`s Gold)
TTITLE17=Belonging To Someone
TTITLE18=Wondering
TTITLE19=Left Right Out Of Your Heart (Hi Lee Hi Lo Hi Lup Up Up)
EXTD=
EXTT0=
EXTT1=
EXTT2=
EXTT3=
EXTT4=
EXTT5=
EXTT6=
EXTT7=
EXTT8=
EXTT9=
EXTT10=
EXTT11=
EXTT12=
EXTT13=
EXTT14=
EXTT15=
EXTT16=
EXTT17=
EXTT18=
EXTT19=
PLAYORDER=
